<?xml version="1.0" encoding="utf-8"?>
<!-- Generator: Adobe Illustrator 16.0.0, SVG Export Plug-In . SVG Version: 6.00 Build 0)  -->
<!DOCTYPE svg PUBLIC "-//W3C//DTD SVG 1.1//EN" "http://www.w3.org/Graphics/SVG/1.1/DTD/svg11.dtd">
<svg version="1.1" id="Layer_1" xmlns="http://www.w3.org/2000/svg" xmlns:xlink="http://www.w3.org/1999/xlink" x="0px" y="0px"
	 width="640px" height="640px" viewBox="0 0 640 640" enable-background="new 0 0 640 640" xml:space="preserve">
<g>
	<path fill="#FFFFFF" d="M289.023,316.022c-31.473,34.895-84.928,52.778-122.936,60.597c14.031,78.176,72.721,170.252,178.596,177.359
		c-4.285-2.809-8.395-5.923-12.273-9.417c-53.984-48.703-45.678-145.93,18.576-217.157c35.094-38.899,103.262-58.049,145.242-63.064
		c-9.174-90.768-71.768-181.416-195.885-171.38c2.482,1.859,4.918,3.803,7.26,5.912C361.586,147.58,353.27,244.803,289.023,316.022z
		"/>
	<path fill="#798788" d="M126.141,117.118l14.018,31.549c61.789-35.107,115.049-52.061,160.186-55.707
		c124.117-10.036,186.711,80.612,195.885,171.38c-41.98,5.016-110.148,24.165-145.242,63.064
		c-64.254,71.228-72.561,168.454-18.576,217.157c3.879,3.494,7.988,6.608,12.273,9.417c32.553,21.382,75.994,23.11,118.408,7.445
		c70.205-41.669,121.748-113.418,134.586-200.474c22.615-153.357-83.377-296.012-236.73-318.626
		C271.924,29.196,186.561,59.466,126.141,117.118z"/>
	<path fill="#FFFFFF" d="M515.969,371.149c-1.07-13.233-4.459-34.441-6.277-34.781c-67.375-12.987-112.523,31.911-123.748,46.221
		c-11.236,14.307-18.33,28.396-21.285,42.245c-2.936,13.853-1.301,27.326,4.93,40.433c4.162,8.717,9.504,16.18,16.076,22.363
		c6.553,6.195,13.777,10.853,21.639,13.959c7.891,3.117,16.217,4.566,24.963,4.367c8.73-0.199,17.289-2.294,25.65-6.271
		c12.338-5.886,22.494-13.393,30.455-22.523c7.988-9.17,14.186-19.396,18.58-30.679c4.4-11.291,7.256-23.364,8.6-36.202
		C516.889,397.428,517.02,384.365,515.969,371.149z"/>
	<path fill="#FD8249" d="M344.684,553.979c-105.875-7.107-164.564-99.184-178.596-177.359c0.953-0.195,1.957-0.428,2.93-0.638
		c23.676-2.53,48.297-10.83,71.756-24.655c18.094-9.148,35.1-20.722,48.25-35.304c18.355-20.345,32.121-42.813,41.197-65.667
		c23.43-55.761,18.291-116.241-20.225-151.35c-49.354-44.974-126.803-41.632-190.15,24.365
		c-40.295,40.937-68.502,94.497-77.523,155.681c-22.615,153.357,83.373,296.012,236.727,318.625
		c66.303,9.776,130.576-4.52,184.043-36.253C420.678,577.089,377.236,575.36,344.684,553.979z"/>
	<path fill="#FFFFFF" d="M135.758,281.607c2.043,13.117,6.988,34.013,8.826,34.22c68.146,7.978,109.861-40.128,120.004-55.232
		c10.145-15.096,16.18-29.667,18.1-43.694c1.908-14.034-0.721-27.352-7.904-39.961c-4.791-8.388-10.664-15.438-17.678-21.114
		c-6.988-5.697-14.537-9.808-22.613-12.327c-8.094-2.526-16.5-3.356-25.213-2.515c-8.689,0.848-17.072,3.569-25.115,8.147
		c-11.867,6.782-21.451,15.021-28.711,24.717c-7.293,9.731-12.715,20.381-16.264,31.965c-3.553,11.581-5.514,23.828-5.908,36.735
		C132.896,255.467,133.734,268.501,135.758,281.607z"/>
	<g>
		<g>
			<path fill="#5DBCD2" d="M350.479,156.21c43.598,24.654,77.195,56.04,90.83,110.445c15.322-4.541,30.451-7.851,44.234-9.949
				c-9.463-66.946-50.359-139.783-139.072-152.864c-6.926-1.026-14.086-1.653-21.422-1.893
				C337.963,117.061,346.453,135.666,350.479,156.21z"/>
			<path fill="#5DBCD2" d="M412.551,276.707c-2.625-37.552-38.283-99.024-60.125-107.558c2.682,26.732-1.82,56.066-14.012,85.096
				c-9.758,24.578-24.209,47.62-42.877,68.316c-12.719,14.107-29.787,26.638-50.723,37.247
				c-21.816,12.816-45.205,21.323-68.096,24.807c14.938,66.976,61.992,136.746,138.135,155.757
				c-20.787-24.923-30.354-58.56-27.115-96.411c3.678-43.017,23.559-86.509,55.979-122.45
				C361.111,302.234,386.072,287.476,412.551,276.707z"/>
		</g>
	</g>
</g>
</svg>
